# xmcd
#
# Track frame offsets:
#   150
#   13220
#   26583
#   39020
#   64355
#   72775
#   84633
#   98488
#   110793
#   123813
#   135240
#   145973
#   157075
#   169233
#   180505
#   193453
#   205533
#   217725
#   230628
#   241935
#
# Disc length: 3371 seconds
#
# Revision: 0
# Processed by: cddbd v1.5.1PL2 Copyright (c) Steve Scherf et al.
# Submitted via: uFREEDB 1.6.2
#
DISCID=130d2914
DTITLE=OLD SONGS COLLECT 5 - OLD SONGS COLLECT 5
DYEAR=1970
DGENRE=UnClassifiable
TTITLE0=North to Alaska
TTITLE1=Three coing in the fountain
TTITLE2=Fascination
TTITLE3=Do Re Mi
TTITLE4=Edelwelss
TTITLE5=Tonight
TTITLE6=Tom Dooley
TTITLE7=High noon
TTITLE8=The hanging tree
TTITLE9=Sho Jo Ji
TTITLE10=Georgy girl
TTITLE11=Crying in the chapel
TTITLE12=California dreaming
TTITLE13=The doggie in the window
TTITLE14=Vaya Con Dios
TTITLE15=Rosfs are red
TTITLE16=I'm sorry
TTITLE17=A place in the sun
TTITLE18=Hey Paula
TTITLE19=Limbo rock
EXTD=
EXTT0=
EXTT1=
EXTT2=
EXTT3=
EXTT4=
EXTT5=
EXTT6=
EXTT7=
EXTT8=
EXTT9=
EXTT10=
EXTT11=
EXTT12=
EXTT13=
EXTT14=
EXTT15=
EXTT16=
EXTT17=
EXTT18=
EXTT19=
PLAYORDER=
